<svg xmlns="http://www.w3.org/2000/svg" xmlns:xlink="http://www.w3.org/1999/xlink" width="500" zoomAndPan="magnify" viewBox="0 0 375 374.999991" height="500" preserveAspectRatio="xMidYMid meet" version="1.0"><defs><g/><clipPath id="37d70f2960"><path d="M 54.757812 0.0390625 L 320.242188 0.0390625 L 320.242188 296.171875 L 54.757812 296.171875 Z M 54.757812 0.0390625 " clip-rule="nonzero"/></clipPath></defs><g fill="#0c6980" fill-opacity="1"><g transform="translate(55.332953, 369.713593)"><g><path d="M 5.6875 -50.875 L 25.8125 -50.875 C 29.601562 -50.875 33.109375 -50.226562 36.328125 -48.9375 C 39.546875 -47.644531 42.328125 -45.867188 44.671875 -43.609375 C 47.023438 -41.359375 48.875 -38.675781 50.21875 -35.5625 C 51.5625 -32.457031 52.234375 -29.082031 52.234375 -25.4375 C 52.234375 -21.789062 51.5625 -18.421875 50.21875 -15.328125 C 48.875 -12.242188 47.023438 -9.5625 44.671875 -7.28125 C 42.328125 -5.007812 39.546875 -3.226562 36.328125 -1.9375 C 33.109375 -0.644531 29.601562 0 25.8125 0 L 5.6875 0 Z M 25.890625 -10.40625 C 28.015625 -10.40625 29.960938 -10.78125 31.734375 -11.53125 C 33.503906 -12.289062 35.046875 -13.34375 36.359375 -14.6875 C 37.679688 -16.03125 38.707031 -17.613281 39.4375 -19.4375 C 40.175781 -21.257812 40.546875 -23.257812 40.546875 -25.4375 C 40.546875 -27.613281 40.175781 -29.613281 39.4375 -31.4375 C 38.707031 -33.257812 37.679688 -34.835938 36.359375 -36.171875 C 35.046875 -37.515625 33.503906 -38.566406 31.734375 -39.328125 C 29.960938 -40.085938 28.015625 -40.46875 25.890625 -40.46875 L 16.78125 -40.46875 L 16.78125 -10.40625 Z M 25.890625 -10.40625 "/></g></g></g><g fill="#0c6980" fill-opacity="1"><g transform="translate(110.228113, 369.713593)"><g><path d="M 28.921875 1.0625 C 25.179688 1.0625 21.710938 0.378906 18.515625 -0.984375 C 15.328125 -2.347656 12.554688 -4.21875 10.203125 -6.59375 C 7.859375 -8.976562 6.015625 -11.773438 4.671875 -14.984375 C 3.328125 -18.203125 2.65625 -21.6875 2.65625 -25.4375 C 2.65625 -29.175781 3.328125 -32.664062 4.671875 -35.90625 C 6.015625 -39.144531 7.859375 -41.953125 10.203125 -44.328125 C 12.554688 -46.710938 15.328125 -48.578125 18.515625 -49.921875 C 21.710938 -51.265625 25.179688 -51.9375 28.921875 -51.9375 C 32.617188 -51.9375 36.070312 -51.265625 39.28125 -49.921875 C 42.5 -48.578125 45.285156 -46.710938 47.640625 -44.328125 C 49.992188 -41.953125 51.835938 -39.144531 53.171875 -35.90625 C 54.515625 -32.664062 55.1875 -29.175781 55.1875 -25.4375 C 55.1875 -21.6875 54.515625 -18.203125 53.171875 -14.984375 C 51.835938 -11.773438 49.992188 -8.976562 47.640625 -6.59375 C 45.285156 -4.21875 42.5 -2.347656 39.28125 -0.984375 C 36.070312 0.378906 32.617188 1.0625 28.921875 1.0625 Z M 28.921875 -9.71875 C 31.046875 -9.71875 32.992188 -10.109375 34.765625 -10.890625 C 36.535156 -11.679688 38.066406 -12.785156 39.359375 -14.203125 C 40.648438 -15.617188 41.660156 -17.285156 42.390625 -19.203125 C 43.128906 -21.128906 43.5 -23.207031 43.5 -25.4375 C 43.5 -27.664062 43.128906 -29.738281 42.390625 -31.65625 C 41.660156 -33.582031 40.648438 -35.238281 39.359375 -36.625 C 38.066406 -38.019531 36.535156 -39.125 34.765625 -39.9375 C 32.992188 -40.75 31.046875 -41.15625 28.921875 -41.15625 C 26.796875 -41.15625 24.847656 -40.75 23.078125 -39.9375 C 21.304688 -39.125 19.773438 -38.019531 18.484375 -36.625 C 17.191406 -35.238281 16.175781 -33.582031 15.4375 -31.65625 C 14.707031 -29.738281 14.34375 -27.664062 14.34375 -25.4375 C 14.34375 -23.207031 14.707031 -21.128906 15.4375 -19.203125 C 16.175781 -17.285156 17.191406 -15.628906 18.484375 -14.234375 C 19.773438 -12.835938 21.304688 -11.734375 23.078125 -10.921875 C 24.847656 -10.117188 26.796875 -9.71875 28.921875 -9.71875 Z M 28.921875 -9.71875 "/></g></g></g><g fill="#0c6980" fill-opacity="1"><g transform="translate(168.08441, 369.713593)"><g><path d="M 29.078125 1.0625 C 25.285156 1.0625 21.769531 0.40625 18.53125 -0.90625 C 15.289062 -2.226562 12.492188 -4.066406 10.140625 -6.421875 C 7.785156 -8.773438 5.945312 -11.566406 4.625 -14.796875 C 3.3125 -18.035156 2.65625 -21.554688 2.65625 -25.359375 C 2.65625 -29.148438 3.328125 -32.664062 4.671875 -35.90625 C 6.015625 -39.144531 7.859375 -41.953125 10.203125 -44.328125 C 12.554688 -46.710938 15.34375 -48.578125 18.5625 -49.921875 C 21.78125 -51.265625 25.257812 -51.9375 29 -51.9375 C 32.945312 -51.9375 36.613281 -51.175781 40 -49.65625 C 43.394531 -48.132812 46.332031 -45.957031 48.8125 -43.125 L 41.078125 -35.609375 C 39.609375 -37.328125 37.875 -38.679688 35.875 -39.671875 C 33.875 -40.660156 31.6875 -41.15625 29.3125 -41.15625 C 27.132812 -41.15625 25.132812 -40.757812 23.3125 -39.96875 C 21.488281 -39.1875 19.90625 -38.097656 18.5625 -36.703125 C 17.21875 -35.316406 16.175781 -33.660156 15.4375 -31.734375 C 14.707031 -29.804688 14.34375 -27.734375 14.34375 -25.515625 C 14.34375 -23.234375 14.722656 -21.128906 15.484375 -19.203125 C 16.242188 -17.285156 17.296875 -15.617188 18.640625 -14.203125 C 19.984375 -12.785156 21.585938 -11.679688 23.453125 -10.890625 C 25.328125 -10.109375 27.378906 -9.71875 29.609375 -9.71875 C 32.035156 -9.71875 34.257812 -10.222656 36.28125 -11.234375 C 38.3125 -12.242188 40.035156 -13.613281 41.453125 -15.34375 L 49.203125 -7.96875 C 46.765625 -5.082031 43.835938 -2.851562 40.421875 -1.28125 C 37.003906 0.28125 33.222656 1.0625 29.078125 1.0625 Z M 29.078125 1.0625 "/></g></g></g><g fill="#0c6980" fill-opacity="1"><g transform="translate(218.803578, 369.713593)"><g><path d="M 5.6875 -50.875 L 16.78125 -50.875 L 16.78125 0 L 5.6875 0 Z M 5.6875 -50.875 "/></g></g></g><g fill="#0c6980" fill-opacity="1"><g transform="translate(241.27794, 369.713593)"><g><path d="M 5.6875 -50.875 L 34.390625 -50.875 L 34.390625 -40.46875 L 16.78125 -40.46875 L 16.78125 -28.921875 L 29.53125 -28.921875 L 29.53125 -18.53125 L 16.78125 -18.53125 L 16.78125 0 L 5.6875 0 Z M 5.6875 -50.875 "/></g></g></g><g fill="#0c6980" fill-opacity="1"><g transform="translate(277.950643, 369.713593)"><g><path d="M 15.1875 -18.21875 L -0.375 -50.875 L 11.6875 -50.875 L 21.03125 -30.296875 L 30.59375 -50.875 L 42.0625 -50.875 L 26.265625 -18.375 L 26.265625 0 L 15.1875 0 Z M 15.1875 -18.21875 "/></g></g></g><path fill="#ffffff" d="M 317.617188 257.527344 L 317.617188 270.679688 C 317.617188 283.292969 307.355469 293.550781 294.746094 293.550781 L 57.378906 293.550781 L 57.378906 280.097656 L 294.746094 280.097656 C 299.941406 280.097656 304.160156 275.875 304.160156 270.679688 L 304.160156 257.527344 C 304.160156 252.332031 299.941406 248.105469 294.746094 248.105469 L 270.035156 248.105469 L 270.035156 258 L 254.445312 248.066406 L 238.859375 258 L 238.859375 248.105469 L 57.378906 248.105469 L 57.378906 234.65625 L 89.15625 234.65625 C 76.550781 234.65625 66.285156 224.394531 66.285156 211.785156 L 66.285156 196.597656 C 66.285156 183.984375 76.550781 173.726562 89.15625 173.726562 L 308.703125 173.726562 L 308.703125 187.175781 L 89.15625 187.175781 C 83.964844 187.175781 79.742188 191.402344 79.742188 196.597656 L 79.742188 211.785156 C 79.742188 216.976562 83.964844 221.199219 89.15625 221.199219 L 238.859375 221.199219 L 238.859375 204.1875 L 270.035156 204.1875 L 270.035156 221.199219 L 308.703125 221.199219 L 308.703125 234.65625 L 294.746094 234.65625 C 307.355469 234.65625 317.617188 244.914062 317.617188 257.527344 " fill-opacity="1" fill-rule="nonzero"/><path fill="#6c8aa3" d="M 304.160156 257.527344 L 304.160156 270.679688 C 304.160156 275.875 299.941406 280.097656 294.746094 280.097656 L 65.78125 280.097656 C 73.554688 261.695312 65.78125 248.105469 65.78125 248.105469 L 238.859375 248.105469 L 238.859375 258 L 254.382812 248.105469 L 254.511719 248.105469 L 270.035156 258 L 270.035156 248.105469 L 294.746094 248.105469 C 299.941406 248.105469 304.160156 252.332031 304.160156 257.527344 " fill-opacity="1" fill-rule="nonzero"/><path fill="#e1ebed" d="M 300.304688 221.199219 L 270.035156 221.199219 L 270.035156 204.191406 L 238.859375 204.191406 L 238.859375 221.199219 L 89.15625 221.199219 C 83.964844 221.199219 79.742188 216.976562 79.742188 211.785156 L 79.742188 196.597656 C 79.742188 191.402344 83.964844 187.175781 89.15625 187.175781 L 300.304688 187.175781 C 300.304688 187.175781 292.527344 202.800781 300.304688 221.199219 " fill-opacity="1" fill-rule="nonzero"/><g clip-path="url(#37d70f2960)"><path fill="#172738" d="M 314.992188 257.527344 C 314.992188 246.359375 305.910156 237.277344 294.746094 237.277344 L 272.65625 237.277344 L 272.65625 245.484375 L 294.746094 245.484375 C 301.382812 245.484375 306.78125 250.882812 306.78125 257.527344 L 306.78125 270.679688 C 306.78125 277.320312 301.382812 282.71875 294.746094 282.71875 L 60 282.71875 L 60 290.925781 L 294.746094 290.925781 C 305.910156 290.925781 314.992188 281.84375 314.992188 270.679688 Z M 69.570312 277.476562 L 294.746094 277.476562 C 298.488281 277.476562 301.539062 274.425781 301.539062 270.679688 L 301.539062 257.527344 C 301.539062 253.777344 298.488281 250.730469 294.746094 250.730469 L 272.65625 250.730469 L 272.65625 262.78125 L 254.445312 251.175781 L 236.234375 262.78125 L 236.234375 250.730469 L 69.757812 250.730469 C 71.535156 255.832031 73.550781 265.511719 69.570312 277.476562 Z M 60 245.484375 L 236.234375 245.484375 L 236.234375 237.277344 L 60 237.277344 Z M 89.15625 232.03125 L 236.234375 232.03125 L 236.234375 223.820312 L 89.15625 223.820312 C 82.519531 223.820312 77.117188 218.421875 77.117188 211.785156 L 77.117188 196.597656 C 77.117188 189.957031 82.519531 184.554688 89.15625 184.554688 L 306.082031 184.554688 L 306.082031 176.347656 L 89.15625 176.347656 C 77.996094 176.347656 68.90625 185.429688 68.90625 196.597656 L 68.90625 211.785156 C 68.90625 222.949219 77.996094 232.03125 89.15625 232.03125 Z M 296.46875 189.796875 L 89.15625 189.796875 C 85.410156 189.796875 82.363281 192.847656 82.363281 196.597656 L 82.363281 211.785156 C 82.363281 215.527344 85.410156 218.578125 89.15625 218.578125 L 236.234375 218.578125 L 236.234375 206.808594 C 231.371094 206.808594 226.511719 206.808594 221.648438 206.808594 C 218.273438 206.808594 218.277344 201.566406 221.648438 201.566406 C 226.511719 201.566406 231.371094 201.566406 236.234375 201.566406 L 272.65625 201.566406 C 277.496094 201.566406 282.335938 201.566406 287.175781 201.566406 C 290.558594 201.566406 290.550781 206.808594 287.175781 206.808594 C 282.335938 206.808594 277.496094 206.808594 272.65625 206.808594 L 272.65625 218.578125 L 296.519531 218.578125 C 292.40625 206.082031 294.679688 195.273438 296.46875 189.796875 Z M 241.480469 253.21875 L 254.445312 244.957031 L 267.414062 253.21875 L 267.414062 206.808594 C 258.765625 206.808594 250.121094 206.808594 241.480469 206.808594 Z M 304.253906 223.820312 L 272.65625 223.820312 L 272.65625 232.03125 L 306.082031 232.03125 L 306.082031 223.820312 Z M 124.671875 57.664062 L 124.671875 98.929688 L 143.21875 98.929688 Z M 119.425781 57.492188 L 100.796875 98.929688 L 119.425781 98.929688 Z M 232.679688 98.929688 L 251.226562 98.929688 L 251.226562 57.664062 Z M 256.472656 98.929688 L 275.101562 98.929688 L 256.472656 57.492188 Z M 320.238281 257.527344 L 320.238281 270.679688 C 320.238281 284.734375 308.804688 296.171875 294.746094 296.171875 L 54.757812 296.171875 L 54.757812 277.476562 L 64.007812 277.476562 C 68.972656 264.335938 65.664062 254.234375 64.140625 250.730469 L 54.757812 250.730469 L 54.757812 232.03125 L 73.695312 232.03125 C 67.605469 227.371094 63.664062 220.027344 63.664062 211.785156 L 63.664062 196.597656 C 63.664062 182.539062 75.101562 171.101562 89.15625 171.101562 L 145.191406 171.101562 L 145.191406 160.71875 L 161.261719 160.71875 L 161.261719 155.640625 C 161.261719 149.636719 166.144531 144.757812 172.148438 144.757812 L 172.285156 144.757812 L 172.285156 123.710938 C 172.285156 118.234375 176.351562 113.691406 181.621094 112.9375 L 181.621094 57.074219 L 181.453125 56.714844 C 177.75 48.617188 170.925781 42.660156 163.199219 40.789062 C 158.585938 39.667969 154.363281 40.265625 151.621094 42.417969 C 148.0625 45.214844 141.085938 50.230469 134.304688 52.449219 L 134.136719 52.5 C 133.535156 52.652344 130.898438 53.300781 128.554688 53.515625 L 148.742188 98.421875 L 148.742188 101.933594 C 148.742188 113.882812 136.734375 123.609375 121.972656 123.609375 C 107.210938 123.609375 95.199219 113.882812 95.199219 101.933594 L 95.199219 98.929688 L 95.277344 98.929688 L 95.277344 98.421875 L 117.871094 48.164062 C 116.019531 45.042969 115.671875 41.03125 116.867188 36.492188 C 115.851562 35.3125 115.234375 33.78125 115.234375 32.105469 C 115.234375 28.394531 118.253906 25.371094 121.972656 25.371094 C 125.683594 25.371094 128.707031 28.394531 128.707031 32.105469 C 128.707031 35.234375 126.566406 37.859375 123.675781 38.617188 C 123.679688 40.34375 124.152344 41.863281 125.683594 42.332031 C 129.886719 43.628906 132.800781 40.925781 137.597656 36.035156 C 141.765625 31.789062 146.953125 26.5 154.75 24.605469 C 166.605469 21.71875 175.886719 25.617188 181.621094 30.132812 L 181.621094 25.183594 C 177.496094 22.886719 174.703125 18.492188 174.703125 13.453125 C 174.703125 6.050781 180.722656 0.0351562 188.117188 0.0351562 C 195.515625 0.0351562 201.535156 6.050781 201.535156 13.453125 C 201.535156 18.632812 198.585938 23.121094 194.285156 25.359375 L 194.285156 30.132812 C 200.011719 25.613281 209.292969 21.722656 221.148438 24.605469 C 228.945312 26.5 234.132812 31.789062 238.300781 36.035156 C 243.097656 40.929688 246.015625 43.628906 250.21875 42.332031 C 251.75 41.863281 252.222656 40.34375 252.222656 38.617188 C 249.335938 37.859375 247.191406 35.234375 247.191406 32.105469 C 247.191406 28.394531 250.214844 25.371094 253.933594 25.371094 C 257.644531 25.371094 260.667969 28.394531 260.667969 32.105469 C 260.667969 33.78125 260.050781 35.3125 259.039062 36.492188 C 260.230469 41.03125 259.882812 45.042969 258.03125 48.164062 L 280.621094 98.421875 L 280.621094 98.929688 L 280.699219 98.929688 L 280.699219 101.933594 C 280.699219 113.882812 268.691406 123.609375 253.933594 123.609375 C 239.167969 123.609375 227.15625 113.882812 227.15625 101.933594 L 227.15625 98.421875 L 247.34375 53.519531 C 244.992188 53.308594 242.367188 52.652344 241.761719 52.5 L 241.597656 52.449219 C 234.8125 50.230469 227.835938 45.214844 224.28125 42.417969 C 221.535156 40.265625 217.316406 39.667969 212.703125 40.789062 C 204.972656 42.660156 198.152344 48.617188 194.449219 56.714844 L 194.285156 57.074219 L 194.285156 112.9375 C 199.554688 113.691406 203.613281 118.234375 203.613281 123.710938 L 203.613281 144.757812 L 203.757812 144.757812 C 209.753906 144.757812 214.640625 149.636719 214.640625 155.640625 L 214.640625 160.71875 L 230.707031 160.71875 L 230.707031 171.101562 L 311.328125 171.101562 L 311.328125 189.796875 L 302.046875 189.796875 C 300.546875 193.757812 297.121094 205.332031 302.082031 218.578125 L 311.328125 218.578125 L 311.328125 237.277344 L 310.207031 237.277344 C 316.300781 241.941406 320.238281 249.277344 320.238281 257.527344 Z M 76.824219 273.839844 C 99.140625 273.839844 121.460938 273.839844 143.777344 273.839844 C 147.148438 273.839844 147.15625 268.597656 143.777344 268.597656 C 121.460938 268.597656 99.140625 268.597656 76.824219 268.597656 C 73.449219 268.597656 73.445312 273.839844 76.824219 273.839844 Z M 151.890625 273.839844 C 154.464844 273.839844 157.039062 273.839844 159.613281 273.839844 C 162.984375 273.839844 162.992188 268.597656 159.613281 268.597656 C 157.039062 268.597656 154.464844 268.597656 151.890625 268.597656 C 148.515625 268.597656 148.507812 273.839844 151.890625 273.839844 Z M 168.675781 273.839844 C 165.296875 273.839844 165.300781 268.597656 168.675781 268.597656 C 171.195312 268.597656 173.71875 268.597656 176.238281 268.597656 C 179.621094 268.597656 179.617188 273.839844 176.238281 273.839844 C 173.71875 273.839844 171.195312 273.839844 168.675781 273.839844 " fill-opacity="1" fill-rule="nonzero"/></g></svg>